<svg version="1.1" viewBox="0.0 0.0 100.0 100.0" fill="none" stroke="none" stroke-linecap="square" stroke-miterlimit="10" xmlns:xlink="http://www.w3.org/1999/xlink" xmlns="http://www.w3.org/2000/svg"><clipPath id="p.0"><path d="m0 0l100.0 0l0 100.0l-100.0 0l0 -100.0z" clip-rule="nonzero"/></clipPath><g clip-path="url(#p.0)"><path fill="#000000" fill-opacity="0.0" d="m0 0l100.0 0l0 100.0l-100.0 0z" fill-rule="evenodd"/><path fill="#ffffff" d="m43.170605 63.937008l-0.39632797 10.446194l25.632545 4.7637787l0.0052490234 -12.889763l17.879265 -8.70866l-0.52493286 10.217846l-17.27034 11.3569565l-0.083992004 -12.748032l17.745407 -8.916012l-25.766403 -1.8792648z" fill-rule="evenodd"/><path stroke="#38761d" stroke-width="1.0" stroke-linejoin="round" stroke-linecap="butt" d="m43.170605 63.937008l-0.39632797 10.446194l25.632545 4.7637787l0.0052490234 -12.889763l17.879265 -8.70866l-0.52493286 10.217846l-17.27034 11.3569565l-0.083992004 -12.748032l17.745407 -8.916012l-25.766403 -1.8792648z" fill-rule="evenodd"/><path fill="#ffffff" d="m45.093174 67.52231l0 3.3123398l0.9370079 1.561676l2.312336 0.37532806l1.1889801 -1.3123322l0.06036377 -2.8740158l-0.8110237 -1.6272964l-3.0 -0.49868774z" fill-rule="evenodd"/><path stroke="#38761d" stroke-width="1.0" stroke-linejoin="round" stroke-linecap="butt" d="m45.093174 67.52231l0 3.3123398l0.9370079 1.561676l2.312336 0.37532806l1.1889801 -1.3123322l0.06036377 -2.8740158l-0.8110237 -1.6272964l-3.0 -0.49868774z" fill-rule="evenodd"/><path fill="#000000" fill-opacity="0.0" d="m52.093174 69.020996l13.19685 1.6377945" fill-rule="evenodd"/><path stroke="#38761d" stroke-width="1.0" stroke-linejoin="round" stroke-linecap="butt" d="m52.093174 69.020996l13.19685 1.6377945" fill-rule="evenodd"/><path fill="#ffffff" d="m64.34252 56.020996l-10.75066 5.249344l15.062992 1.7506561l11.813652 -5.8110237z" fill-rule="evenodd"/><path stroke="#38761d" stroke-width="1.0" stroke-linejoin="round" stroke-linecap="butt" d="m64.34252 56.020996l-10.75066 5.249344l15.062992 1.7506561l11.813652 -5.8110237z" fill-rule="evenodd"/><path fill="#ffffff" d="m41.067844 24.813425l-21.678417 12.32155l16.115356 30.760502l19.735764 -17.286312z" fill-rule="evenodd"/><path stroke="#38761d" stroke-width="1.0" stroke-linejoin="round" stroke-linecap="butt" d="m41.067844 24.813425l-21.678417 12.32155l16.115356 30.760502l19.735764 -17.286312z" fill-rule="evenodd"/><path fill="#ffffff" d="m41.279167 36.09086l4.9307404 0l8.3753395 -12.225109l-3.4867706 -2.2922077l-9.734966 10.69697z" fill-rule="evenodd"/><path stroke="#38761d" stroke-width="1.0" stroke-linejoin="round" stroke-linecap="butt" d="m41.279167 36.09086l4.9307404 0l8.3753395 -12.225109l-3.4867706 -2.2922077l-9.734966 10.69697z" fill-rule="evenodd"/><path fill="#ffffff" d="m51.779526 28.870079l1.1889763 0.68766403l2.4356956 -3.2519684l-1.4356956 -0.9370079z" fill-rule="evenodd"/><path stroke="#38761d" stroke-width="1.0" stroke-linejoin="round" stroke-linecap="butt" d="m51.779526 28.870079l1.1889763 0.68766403l2.4356956 -3.2519684l-1.4356956 -0.9370079z" fill-rule="evenodd"/><path fill="#ffffff" d="m39.480316 56.934383l-0.39632797 10.446194l25.63255 4.7637787l0.0052490234 -12.889763l17.879265 -8.70866l-0.52493286 10.217846l-17.270348 11.3569565l-0.083984375 -12.748032l17.745407 -8.916012l-25.766407 -1.8792648z" fill-rule="evenodd"/><path stroke="#38761d" stroke-width="1.0" stroke-linejoin="round" stroke-linecap="butt" d="m39.480316 56.934383l-0.39632797 10.446194l25.63255 4.7637787l0.0052490234 -12.889763l17.879265 -8.70866l-0.52493286 10.217846l-17.270348 11.3569565l-0.083984375 -12.748032l17.745407 -8.916012l-25.766407 -1.8792648z" fill-rule="evenodd"/><path fill="#ffffff" d="m41.402885 60.519684l0 3.312336l0.9370079 1.5616798l2.312336 0.37532806l1.1889763 -1.3123322l0.060367584 -2.8740196l-0.8110237 -1.6272964l-3.0 -0.49868774z" fill-rule="evenodd"/><path stroke="#38761d" stroke-width="1.0" stroke-linejoin="round" stroke-linecap="butt" d="m41.402885 60.519684l0 3.312336l0.9370079 1.5616798l2.312336 0.37532806l1.1889763 -1.3123322l0.060367584 -2.8740196l-0.8110237 -1.6272964l-3.0 -0.49868774z" fill-rule="evenodd"/><path fill="#000000" fill-opacity="0.0" d="m48.402885 62.01837l13.196854 1.6377945" fill-rule="evenodd"/><path stroke="#38761d" stroke-width="1.0" stroke-linejoin="round" stroke-linecap="butt" d="m48.402885 62.01837l13.196854 1.6377945" fill-rule="evenodd"/><path fill="#ffffff" d="m60.65223 49.01837l-10.750656 5.249344l15.062996 1.7506561l11.813644 -5.8110237z" fill-rule="evenodd"/><path stroke="#38761d" stroke-width="1.0" stroke-linejoin="round" stroke-linecap="butt" d="m60.65223 49.01837l-10.750656 5.249344l15.062996 1.7506561l11.813644 -5.8110237z" fill-rule="evenodd"/></g></svg>